<svg width="33" height="33" viewBox="0 0 33 33" fill="none" xmlns="http://www.w3.org/2000/svg">
<path fill-rule="evenodd" clip-rule="evenodd" d="M16.4399 32.5383C7.60339 32.5383 0.439941 25.3749 0.439941 16.5383C0.439941 7.70174 7.60339 0.5383 16.4399 0.5383C25.2765 0.5383 32.4399 7.70174 32.4399 16.5383C32.4399 25.3749 25.2765 32.5383 16.4399 32.5383ZM27.2028 23.9923C28.6706 21.8769 29.5308 19.3081 29.5308 16.5383C29.5308 9.3084 23.6698 3.4474 16.4399 3.4474C9.21 3.4474 3.349 9.3084 3.349 16.5383C3.349 19.3081 4.2092 21.877 5.67704 23.9924C7.31403 21.8301 11.1608 20.9019 16.44 20.9019C21.7191 20.9019 25.5658 21.83 27.2028 23.9923ZM25.1159 26.3416C24.6901 24.8108 21.6318 23.811 16.44 23.811C11.2481 23.811 8.18973 24.8108 7.76406 26.3417C10.0738 28.3873 13.1118 29.6292 16.4399 29.6292C19.768 29.6292 22.8061 28.3873 25.1159 26.3416ZM16.4399 7.81103C12.9186 7.81103 10.6217 10.3649 10.6217 13.6292C10.6217 18.6145 13.183 20.9019 16.4399 20.9019C19.6662 20.9019 22.2581 18.6905 22.2581 13.9201C22.2581 10.6061 19.9514 7.81103 16.4399 7.81103ZM13.5309 13.6292C13.5309 16.9299 14.721 17.9928 16.44 17.9928C18.153 17.9928 19.3491 16.9723 19.3491 13.9201C19.3491 12.1025 18.2082 10.7201 16.44 10.7201C14.5981 10.7201 13.5309 11.9068 13.5309 13.6292Z" fill="black"/>
</svg>
