<svg width="276" height="276" viewBox="0 0 276 276" fill="none" xmlns="http://www.w3.org/2000/svg">
<circle cx="138" cy="138" r="138" fill="black"/>
<path d="M65 168.779L100.156 165.361C102.272 177.161 106.545 185.828 112.974 191.362C119.484 196.896 128.232 199.663 139.219 199.663C150.856 199.663 159.604 197.222 165.464 192.339C171.405 187.375 174.375 181.597 174.375 175.005C174.375 170.773 173.114 167.192 170.591 164.263C168.149 161.252 163.836 158.647 157.651 156.45C153.42 154.985 143.776 152.381 128.721 148.638C109.352 143.836 95.7617 137.936 87.9492 130.938C76.9629 121.09 71.4697 109.087 71.4697 94.9268C71.4697 85.8122 74.0332 77.3079 79.1602 69.4141C84.3685 61.4388 91.8148 55.376 101.499 51.2256C111.265 47.0752 123.024 45 136.777 45C159.238 45 176.125 49.9235 187.437 59.7705C198.83 69.6175 204.811 82.7604 205.381 99.1992L169.248 100.786C167.702 91.5902 164.365 84.9984 159.238 81.0107C154.193 76.9417 146.584 74.9072 136.411 74.9072C125.913 74.9072 117.694 77.0638 111.753 81.377C107.928 84.1439 106.016 87.8467 106.016 92.4854C106.016 96.7171 107.806 100.339 111.387 103.35C115.944 107.174 127.012 111.162 144.59 115.312C162.168 119.463 175.148 123.776 183.53 128.252C191.994 132.646 198.586 138.709 203.306 146.44C208.107 154.09 210.508 163.571 210.508 174.883C210.508 185.137 207.66 194.74 201.963 203.691C196.266 212.643 188.21 219.316 177.793 223.711C167.376 228.024 154.396 230.181 138.853 230.181C116.229 230.181 98.8542 224.972 86.7285 214.556C74.6029 204.058 67.36 188.799 65 168.779Z" fill="white"/>
</svg>
