<svg width="27" height="32" viewBox="0 0 27 32" fill="none" xmlns="http://www.w3.org/2000/svg">
<path fill-rule="evenodd" clip-rule="evenodd" d="M22.8738 13.4421C22.8738 7.76559 19.9434 3.8257 16.1518 2.6429C16.0145 2.26343 15.7975 1.91065 15.5026 1.61464C14.4949 0.603225 12.9246 0.603225 11.9169 1.61464C11.6226 1.91 11.4059 2.26188 11.2686 2.6404C7.47206 3.81804 4.54563 7.74931 4.54563 13.4421C4.54563 17.1255 3.85045 19.1895 2.56352 20.6852C2.34834 20.9353 1.76535 21.5081 1.37046 21.8962C1.18364 22.0798 1.03892 22.222 0.995155 22.2691L0.618164 22.6775V27.4464H8.58827C8.85778 28.9316 9.61219 29.9252 10.9765 30.8145C12.6547 31.9085 14.7647 31.9085 16.443 30.8145C17.647 30.0297 18.4543 28.8235 18.7818 27.4464H26.8013V22.6775L26.4243 22.2691C26.3846 22.2261 26.2458 22.0893 26.0643 21.9104L26.0643 21.9104L26.0642 21.9104C25.6705 21.5224 25.0761 20.9367 24.8577 20.6818C23.5699 19.1791 22.8738 17.1126 22.8738 13.4421ZM15.9834 27.4464H11.3252C11.5102 27.8139 11.8255 28.0914 12.3404 28.4271C13.1812 28.9752 14.2383 28.9752 15.0791 28.4271C15.4684 28.1733 15.7727 27.8374 15.9834 27.4464ZM22.9264 22.5704C23.2019 22.8919 23.7923 23.4794 24.183 23.8633V24.6494H3.23648V23.8639C3.62408 23.4846 4.21629 22.8974 4.49128 22.5778C6.23997 20.5454 7.16394 17.8022 7.16394 13.4421C7.16394 8.15585 10.2179 5.06875 13.7097 5.06875C17.1917 5.06875 20.2555 8.17178 20.2555 13.4421C20.2555 17.7882 21.1798 20.5323 22.9264 22.5704Z" fill="#8A8A8A"/>
</svg>
