<svg width="32" height="35" viewBox="0 0 32 35" fill="none" xmlns="http://www.w3.org/2000/svg">
<g id="notifications">
<path id="icon" fill-rule="evenodd" clip-rule="evenodd" d="M24.8739 14.4421C24.8739 8.76559 21.9435 4.8257 18.1519 3.6429C18.0146 3.26343 17.7977 2.91065 17.5027 2.61464C16.495 1.60323 14.9247 1.60323 13.917 2.61464C13.6227 2.91 13.406 3.26188 13.2687 3.6404C9.47218 4.81804 6.54575 8.74931 6.54575 14.4421C6.54575 18.1255 5.85057 20.1895 4.56364 21.6852C4.34847 21.9353 3.76548 22.5081 3.37058 22.8962C3.18376 23.0798 3.03904 23.222 2.99528 23.2691L2.61829 23.6775V28.4464H10.5884C10.8579 29.9316 11.6123 30.9252 12.9766 31.8145C14.6549 32.9085 16.7648 32.9085 18.4431 31.8145C19.6471 31.0297 20.4544 29.8235 20.7819 28.4464H28.8014V23.6775L28.4244 23.2691C28.3847 23.2261 28.2459 23.0893 28.0644 22.9104L28.0644 22.9104L28.0644 22.9104C27.6707 22.5224 27.0763 21.9367 26.8578 21.6818C25.57 20.1791 24.8739 18.1126 24.8739 14.4421ZM17.9835 28.4464H13.3254C13.5103 28.8139 13.8256 29.0914 14.3405 29.4271C15.1813 29.9752 16.2384 29.9752 17.0792 29.4271C17.4686 29.1733 17.7728 28.8374 17.9835 28.4464ZM24.9265 23.5704C25.202 23.8919 25.7925 24.4794 26.1831 24.8633V25.6494H5.2366V24.8639C5.6242 24.4846 6.21641 23.8974 6.49141 23.5778C8.24009 21.5454 9.16406 18.8022 9.16406 14.4421C9.16406 9.15585 12.218 6.06875 15.7098 6.06875C19.1918 6.06875 22.2556 9.17178 22.2556 14.4421C22.2556 18.7882 23.1799 21.5323 24.9265 23.5704Z" fill="black"/>
</g>
</svg>
