<svg width="20" height="21" viewBox="0 0 20 21" fill="none" xmlns="http://www.w3.org/2000/svg">
<path fill-rule="evenodd" clip-rule="evenodd" d="M8.60055 16.4595C4.35879 16.4595 0.920166 12.7864 0.920166 8.2553C0.920166 3.72422 4.35879 0.0510559 8.60055 0.0510559C12.8423 0.0510559 16.2809 3.72422 16.2809 8.2553C16.2809 10.1512 15.6789 11.8969 14.6679 13.2862L19.8399 18.811L18.4822 20.2613L13.3102 14.7365C12.0096 15.8165 10.3754 16.4595 8.60055 16.4595ZM14.3608 8.2553C14.3608 11.6536 11.7819 14.4085 8.60054 14.4085C5.41922 14.4085 2.84026 11.6536 2.84026 8.2553C2.84026 4.85699 5.41922 2.10212 8.60054 2.10212C11.7819 2.10212 14.3608 4.85699 14.3608 8.2553Z" fill="#8A8A8A"/>
</svg>
