<svg width="33" height="35" viewBox="0 0 33 35" fill="none" xmlns="http://www.w3.org/2000/svg">
<path fill-rule="evenodd" clip-rule="evenodd" d="M16.2807 34.3808C7.5321 34.3808 0.439941 26.8049 0.439941 17.4596C0.439941 8.1142 7.5321 0.5383 16.2807 0.5383C25.0293 0.5383 32.1215 8.1142 32.1215 17.4596C32.1215 26.8049 25.0293 34.3808 16.2807 34.3808ZM26.9365 25.3428C28.3897 23.1056 29.2414 20.3888 29.2414 17.4596C29.2414 9.81336 23.4387 3.61489 16.2807 3.61489C9.12276 3.61489 3.32008 9.81336 3.32008 17.4596C3.32008 20.3888 4.17172 23.1056 5.62493 25.3428C7.24517 23.0567 11.0519 22.075 16.2761 22.0744C13.0538 22.0721 10.5204 19.6528 10.5204 14.383C10.5204 10.9307 12.7945 8.22978 16.2807 8.22978C19.7573 8.22978 22.041 11.1857 22.041 14.6906C22.041 19.7332 19.4774 22.0722 16.2854 22.0744C21.5096 22.075 25.3163 23.0567 26.9365 25.3428ZM24.8703 27.8273C24.4488 26.2084 21.4209 25.151 16.2807 25.151C11.1406 25.151 8.11264 26.2084 7.69116 27.8273C9.97797 29.9908 12.9858 31.3042 16.2807 31.3042C19.5757 31.3042 22.5835 29.9908 24.8703 27.8273ZM13.4006 14.383C13.4006 17.8738 14.5789 18.9979 16.2807 18.9979C17.9767 18.9979 19.1609 17.9186 19.1609 14.6906C19.1609 12.7684 18.0314 11.3064 16.2807 11.3064C14.4572 11.3064 13.4006 12.5614 13.4006 14.383Z" fill="#8A8A8A"/>
</svg>
